<?xml version="1.0" encoding="UTF-8"?><svg id="Layer_1" xmlns="http://www.w3.org/2000/svg" viewBox="0 0 357.63 195.73"><defs><style>.cls-1{fill:none;}.cls-2{fill:#728a8c;}.cls-3{fill:#123b40;}</style></defs><line class="cls-1" x1="37.92" y1="145.13" x2="331.88" y2="145.13"/><g><polygon class="cls-1" points="290.82 145.13 267.7 145.13 290.82 180.15 290.82 145.13"/><path class="cls-1" d="M174.44,95.57c-4.07-5.02-8.06-10.12-12.06-15.21-3.54-4.47-7.05-8.94-10.59-13.42-.77-1-1.56-1.99-2.46-3.13-8.83,17.51-17.63,34.92-26.43,52.35-3.94-1.48-7.75-2.9-11.69-4.37-4.81,10.74-9.62,21.43-14.57,32.48-1.39-8.27-2.72-16.17-4.07-24.25-10.48,8.39-20.93,16.74-31.36,25.09h8.37s5.23,.01,5.23,.01h74.82c8.36-15.61,16.71-31.22,25.1-46.79,.62-1.13,.5-1.79-.29-2.77Z"/><polygon class="cls-1" points="107.54 145.13 86.57 145.13 97.6 162.23 107.54 145.13"/><polygon class="cls-1" points="240.1 145.13 218.3 145.13 229.24 168.38 240.1 145.13"/><polygon class="cls-2" points="97.6 162.23 86.57 145.13 74.8 145.13 91.1 170.41 75.27 195.73 86.8 195.73 96.58 178.96 107.35 195.73 119.11 195.73 103.08 170.78 119.08 145.13 107.54 145.13 97.6 162.23"/><path class="cls-2" d="M117.83,170.39c0,12.07,7.52,21.26,17.83,24.27,2.37,.69,4.89,1.06,7.5,1.06s5.14-.37,7.51-1.06c10.3-3.01,17.74-12.2,17.74-24.27,0-9.62-4.72-17.4-11.9-21.68l-6.55,6.77c5.1,2.42,8.27,7.7,8.27,14.92,0,10.05-6.15,16.48-15.07,16.48s-15.15-6.43-15.15-16.48c0-9.1,5.05-15.13,12.68-16.18h.02l4.6-9c-.7-.05-1.42-.08-2.15-.08-13.95,0-25.33,10.48-25.33,25.27Z"/><polygon class="cls-2" points="177.49 195.73 204.58 195.73 204.58 188 187.74 188 187.74 145.13 177.49 145.13 177.49 195.73"/><polygon class="cls-2" points="229.24 168.38 218.3 145.13 206.74 145.13 224.04 178.34 224.04 195.73 234.29 195.73 234.29 178.34 251.52 145.13 240.1 145.13 229.24 168.38"/><polygon class="cls-2" points="290.82 180.15 267.7 145.13 257.48 145.13 257.48 195.73 267.7 195.73 267.7 161.18 290.56 195.73 301.04 195.73 301.04 145.13 290.82 145.13 290.82 180.15"/><polygon class="cls-2" points="337.58 168.95 350.68 151.02 356.19 139.38 344.76 147.07 331.69 161.63 321.46 145.13 306.16 145.13 316.26 158.78 316.26 195.73 326.48 195.73 326.48 172.47 344.69 195.73 357.63 195.73 337.58 168.95"/><path class="cls-2" d="M43.46,147.8c-3.78,4.19-7.54,8.4-11.33,12.6-.24,.26-.48,.53-.7,.79-1.51,1.67-3.02,3.35-4.54,5.02-2.51,2.8-5.04,5.59-7.58,8.39-.33,.36-.65,.72-1,1.08-1.44,1.6-6.05,6.58-10.88,11.84-2.56,2.78-5.19,5.64-7.44,8.09v.12H60.98v-8.21H15.5l12.61-11.84h30.68v-9.47h-22.27l14.26-12.77h18.78v-8.31h-23.69c-.8,.89-1.61,1.78-2.41,2.67Z"/><path class="cls-3" d="M321.46,145.13L231.49,0s-28.49,50.94-47.95,76.48c-12.22-13.78-24.2-27.29-36.21-40.83-2.42,3.16-4.73,6.12-6.98,9.11-5.83,7.7-11.63,15.4-17.44,23.12-4.18,5.53-8.34,11.07-12.51,16.58-3.51,4.64-6.99,9.28-10.57,13.85-.43,.57-1.32,.98-2.01,1.01-3.16,.1-6.32-.02-9.47,.09-.7,.02-1.6,.4-2.08,.93-6.03,6.6-12.01,13.27-17.99,19.92-7.46,8.3-14.93,16.58-22.39,24.87,0,0,0,0-.01,.01h23.69s-8.37-.01-8.37-.01c10.43-8.35,20.88-16.7,31.36-25.09,1.36,8.08,2.68,15.98,4.07,24.25,4.95-11.05,9.76-21.74,14.57-32.48,3.94,1.46,7.75,2.89,11.69,4.37,8.8-17.43,17.6-34.84,26.43-52.35,.89,1.13,1.68,2.13,2.46,3.13,3.54,4.49,7.05,8.95,10.59,13.42,4,5.09,7.99,10.19,12.06,15.21,.79,.98,.91,1.63,.29,2.77-8.39,15.57-16.74,31.18-25.1,46.79-1.52,2.84-3.04,5.68-4.56,8.51-1.08,2.03-2.15,4.06-3.23,6.07,.1,.07,.19,.14,.29,.21,4.64-4.93,9.28-9.86,13.93-14.79,15.81-16.78,31.61-33.57,47.44-50.38,14.5,15.73,27.76,31.31,42.35,47.12-.38-33.31-1.72-80.64-1.72-80.64l62.03,83.9h15.3Z"/></g></svg>